# xmcd
# 
# Track frame offsets:
#     182
#     17140
#     35392
#     67947
# 
# Disc length: 1399
# 
# Revision: 5
# Processed by: cddbd v1.5.2PL0 Copyright (c) Steve Scherf et al.
# Submitted via: fre:ac v1.0.31
# 
DISCID=28057504
DTITLE=Depeche Mode - People Are People (Single)
DYEAR=1984
DGENRE=Electronic
TTITLE0=People Are People
TTITLE1=In Your Memory
TTITLE2=People Are People (Different Mix)
TTITLE3=In Your Memory (Slik Mix)
EXTD=
EXTT0=
EXTT1=
EXTT2=
EXTT3=
PLAYORDER=
